<svg xmlns="http://www.w3.org/2000/svg" viewBox="0 0 132.87 132.5"><defs><style>.cls-1{fill:#ec210d;}.cls-2{fill:#fcac07;}</style></defs><g id="图层_2" data-name="图层 2"><g id="图层_1-2" data-name="图层 1"><path class="cls-1" d="M34.56,124.74a43.37,43.37,0,0,0,10.78,3.11c7.75,1.19,14.81-.36,20.47-6.2a25.56,25.56,0,0,0,6.86-14.57c1.07-7.29-.48-14.22-3.37-20.83C67,80.9,64.24,75.7,61.52,70.52,58,63.8,54.34,57.15,52,49.89a49.43,49.43,0,0,1-2.7-19.45A39.81,39.81,0,0,1,67.55,0H66.44A66.45,66.45,0,0,0,34.56,124.74Z"/><path class="cls-1" d="M107.22,14A34.2,34.2,0,0,0,89.69,7.52a25.23,25.23,0,0,0-25.2,15.59C61.59,30,61.89,37,64,44c1.88,6.36,5,12.18,8,18,3.13,6,6.33,12,9.15,18.18a52.23,52.23,0,0,1,5,20.74c.26,12.57-3.48,23.37-12.64,31.52A66.44,66.44,0,0,0,107.22,14Z"/><path class="cls-2" d="M66.44,111a43.43,43.43,0,0,0,5.5-.35,31.78,31.78,0,0,0,.73-3.57c1.07-7.29-.48-14.22-3.37-20.83C67,80.9,64.24,75.7,61.52,70.52,58,63.8,54.34,57.15,52,49.89a49.43,49.43,0,0,1-2.7-19.45A39.74,39.74,0,0,1,50,25.6,44.29,44.29,0,0,0,66.44,111Z"/><path class="cls-2" d="M66.44,22.42c-.56,0-1.11,0-1.66,0-.1.22-.2.43-.29.65C61.59,30,61.89,37,64,44c1.88,6.36,5,12.18,8,18,3.13,6,6.33,12,9.15,18.18A50.63,50.63,0,0,1,86,106.47a44.3,44.3,0,0,0-19.53-84Z"/><path class="cls-1" d="M66.44,94.4a27.45,27.45,0,0,0,5.48-.55,46.49,46.49,0,0,0-2.62-7.6C67,80.9,64.24,75.7,61.52,70.52,58,63.8,54.34,57.15,52,49.89q-.93-2.84-1.59-5.72A27.68,27.68,0,0,0,66.44,94.4Z"/><path class="cls-1" d="M66.44,39a28.35,28.35,0,0,0-3.59.24A41.4,41.4,0,0,0,64,44c1.88,6.36,5,12.18,8,18,3.13,6,6.33,12,9.15,18.18a60.55,60.55,0,0,1,3,7.82A27.68,27.68,0,0,0,66.44,39Z"/></g></g></svg>